<svg xmlns="http://www.w3.org/2000/svg" viewBox="0 0 1280 1920" width="1280" height="1920" font-family="'IBM Plex Sans', -apple-system, Helvetica, sans-serif">
  <defs>
    <style>
      .mono { font-family: 'IBM Plex Mono', 'SF Mono', Menlo, monospace; }
      .title { font-size: 28px; font-weight: 700; fill: #1f2328; }
      .subtitle { font-size: 12px; font-weight: 400; fill: #656d76; }
      .zone-label { font-size: 11px; font-weight: 600; letter-spacing: 1px; text-transform: uppercase; }
      .card-title { font-size: 13px; font-weight: 600; }
      .card-text { font-size: 11px; fill: #656d76; }
      .card-list { font-size: 10.5px; fill: #656d76; }
      .tag { font-size: 9px; font-weight: 600; letter-spacing: 0.5px; }
      .dim-label { font-size: 9px; font-weight: 500; }
      .small-mono { font-size: 9px; font-weight: 500; }
      .table-head { font-size: 9px; font-weight: 600; letter-spacing: 0.5px; }
      .table-cell { font-size: 10px; fill: #656d76; }
    </style>
    <marker id="arrow-purple" markerWidth="7" markerHeight="5" refX="6" refY="2.5" orient="auto">
      <path d="M0,0 L7,2.5 L0,5" fill="none" stroke="#8250df" stroke-width="1.2"/>
    </marker>
  </defs>

  <!-- Background -->
  <rect width="1280" height="1920" fill="#ffffff"/>

  <!-- ==================== HEADER ==================== -->
  <g id="header">
    <text x="640" y="48" text-anchor="middle" class="title">Agent Forge</text>
    <text x="640" y="68" text-anchor="middle" class="subtitle mono">Workflow Architecture &middot; Build &rarr; Execute &rarr; Govern &rarr; Improve</text>
  </g>

  <!-- Legend bar -->
  <g id="legend" transform="translate(0, 82)">
    <rect x="0" y="0" width="1280" height="32" fill="#f6f8fa" stroke="#e8ecf0" stroke-width="1"/>
    <circle cx="360" cy="16" r="5" fill="#0969da"/><text x="372" y="20" class="card-list" fill="#656d76">Build</text>
    <circle cx="430" cy="16" r="5" fill="#8250df"/><text x="442" y="20" class="card-list" fill="#656d76">Execute</text>
    <circle cx="510" cy="16" r="5" fill="#bf8700"/><text x="522" y="20" class="card-list" fill="#656d76">Govern</text>
    <circle cx="590" cy="16" r="5" fill="#1a7f37"/><text x="602" y="20" class="card-list" fill="#656d76">Improve</text>
    <circle cx="672" cy="16" r="5" fill="#24292f"/><text x="684" y="20" class="card-list" fill="#656d76">Lifecycle</text>
    <circle cx="760" cy="16" r="5" fill="#0550ae"/><text x="772" y="20" class="card-list" fill="#656d76">Agents</text>
  </g>

  <!-- ==================== CONTINUOUS IMPROVEMENT LOOP ==================== -->
  <g id="loop" transform="translate(24, 134)">
    <rect x="0" y="0" width="1232" height="180" rx="12" fill="#f6f8fa" stroke="#d0d7de" stroke-width="2" stroke-dasharray="6 4"/>
    <text x="616" y="28" text-anchor="middle" font-size="15" font-weight="700" fill="#24292f">Continuous Agent Forge Improvement Loop</text>
    <text x="616" y="46" text-anchor="middle" font-size="11.5" fill="#656d76">Every agent you build feeds learnings back into the framework. The system compounds.</text>

    <!-- Loop nodes -->
    <g transform="translate(196, 62)">
      <rect x="0" y="0" width="80" height="32" rx="6" fill="#fbefff" stroke="#e2b6ff" stroke-width="1"/>
      <text x="40" y="20" text-anchor="middle" class="tag mono" fill="#8250df">IDEA</text>
    </g>
    <text x="312" y="82" text-anchor="middle" font-size="14" fill="#8b949e">&rarr;</text>
    <g transform="translate(338, 62)">
      <rect x="0" y="0" width="80" height="32" rx="6" fill="#ddf4ff" stroke="#b6e3ff" stroke-width="1"/>
      <text x="40" y="20" text-anchor="middle" class="tag mono" fill="#0969da">BUILD</text>
    </g>
    <text x="454" y="82" text-anchor="middle" font-size="14" fill="#8b949e">&rarr;</text>
    <g transform="translate(470, 62)">
      <rect x="0" y="0" width="130" height="32" rx="6" fill="#dafbe1" stroke="#a7f0ba" stroke-width="1"/>
      <text x="65" y="20" text-anchor="middle" class="tag mono" fill="#1a7f37">TEST &amp; IMPROVE</text>
    </g>
    <text x="636" y="82" text-anchor="middle" font-size="14" fill="#8b949e">&rarr;</text>
    <g transform="translate(652, 62)">
      <rect x="0" y="0" width="90" height="32" rx="6" fill="#fff8c5" stroke="#f5e0a0" stroke-width="1"/>
      <text x="45" y="20" text-anchor="middle" class="tag mono" fill="#bf8700">GOVERN</text>
    </g>
    <text x="778" y="82" text-anchor="middle" font-size="14" fill="#8b949e">&rarr;</text>
    <g transform="translate(794, 62)">
      <rect x="0" y="0" width="80" height="32" rx="6" fill="#f6f8fa" stroke="#d0d7de" stroke-width="1"/>
      <text x="40" y="20" text-anchor="middle" class="tag mono" fill="#24292f">LEARN</text>
    </g>

    <!-- Return arrow -->
    <path d="M860,100 C860,130 230,130 230,100" fill="none" stroke="#8250df" stroke-width="1.5" stroke-dasharray="5 5" marker-end="url(#arrow-purple)" opacity="0.5"/>
    <text x="545" y="128" text-anchor="middle" class="small-mono mono" fill="#8b949e">learnings feed back into a better forge</text>

    <!-- What improves boxes -->
    <rect x="80" y="140" width="500" height="30" rx="6" fill="#ffffff" stroke="#e8ecf0" stroke-width="1"/>
    <text x="92" y="152" class="small-mono mono" fill="#1a7f37" font-weight="600">WHAT IMPROVES EACH AGENT</text>
    <text x="92" y="164" class="card-list">autoimprove scoring, OpenSpace fixes, trust progression, assessment rubric</text>

    <rect x="600" y="140" width="550" height="30" rx="6" fill="#ffffff" stroke="#e8ecf0" stroke-width="1"/>
    <text x="612" y="152" class="small-mono mono" fill="#24292f" font-weight="600">WHAT IMPROVES THE FORGE</text>
    <text x="612" y="164" class="card-list">New patterns, new anti-patterns, better scoring weights, sharper test cases</text>
  </g>

  <!-- ==================== EXAMPLE AGENTS ==================== -->
  <g id="agents" transform="translate(24, 328)">
    <rect x="0" y="0" width="1232" height="110" rx="8" fill="#ffffff" stroke="#d0d7de" stroke-width="1"/>
    <rect x="0" y="0" width="1232" height="30" rx="8" fill="#ddf4ff" stroke="#b6e3ff" stroke-width="1"/>
    <rect x="0" y="15" width="1232" height="15" fill="#ddf4ff"/>
    <text x="16" y="20" class="zone-label mono" fill="#0550ae">EXAMPLE AGENTS</text>

    <!-- Researcher -->
    <rect x="16" y="40" width="396" height="58" rx="6" fill="#ffffff" stroke="#b6e3ff" stroke-width="1"/>
    <text x="28" y="56" class="card-title" fill="#0550ae">Researcher</text>
    <text x="28" y="70" class="small-mono mono" fill="#0550ae" opacity="0.6">DEEP RESEARCH ENGINE</text>
    <text x="28" y="86" class="card-list">Gathers, verifies, structures info. Confidence-scored. Never recommends.</text>

    <!-- Strategist -->
    <rect x="424" y="40" width="396" height="58" rx="6" fill="#ffffff" stroke="#b6e3ff" stroke-width="1"/>
    <text x="436" y="56" class="card-title" fill="#0550ae">Strategist</text>
    <text x="436" y="70" class="small-mono mono" fill="#0550ae" opacity="0.6">STRATEGIC THINKING</text>
    <text x="436" y="86" class="card-list">Pressure-tests decisions. Identifies non-obvious risks. Challenges reasoning.</text>

    <!-- Coordinator -->
    <rect x="832" y="40" width="384" height="58" rx="6" fill="#ffffff" stroke="#b6e3ff" stroke-width="1"/>
    <text x="844" y="56" class="card-title" fill="#0550ae">Coordinator</text>
    <text x="844" y="70" class="small-mono mono" fill="#0550ae" opacity="0.6">OPERATIONS BACKBONE</text>
    <text x="844" y="86" class="card-list">Routes work. Maintains accountability. Nothing falls through the cracks.</text>
  </g>

  <!-- ==================== BUILD ZONE (left) ==================== -->
  <g id="build" transform="translate(24, 454)">
    <rect x="0" y="0" width="604" height="480" rx="8" fill="#ffffff" stroke="#d0d7de" stroke-width="1"/>
    <rect x="0" y="0" width="604" height="30" rx="8" fill="#ddf4ff" stroke="#b6e3ff" stroke-width="1"/>
    <rect x="0" y="15" width="604" height="15" fill="#ddf4ff"/>
    <text x="16" y="20" class="zone-label mono" fill="#0969da">BUILD -- CREATE AGENTS</text>

    <!-- Agent Standard card -->
    <rect x="16" y="42" width="280" height="204" rx="6" fill="#ffffff" stroke="#e8ecf0" stroke-width="1"/>
    <text x="28" y="60" class="card-title" fill="#0969da">Agent Standard</text>
    <text x="28" y="74" class="small-mono mono" fill="#0969da">9 NON-NEGOTIABLE REQUIREMENTS</text>
    <circle cx="32" cy="92" r="2.5" fill="#0969da" opacity="0.4"/><text x="42" y="96" class="card-list">Mission Statement</text>
    <circle cx="32" cy="106" r="2.5" fill="#0969da" opacity="0.4"/><text x="42" y="110" class="card-list">Defined Scope</text>
    <circle cx="32" cy="120" r="2.5" fill="#0969da" opacity="0.4"/><text x="42" y="124" class="card-list">Input/Output Contract</text>
    <circle cx="32" cy="134" r="2.5" fill="#0969da" opacity="0.4"/><text x="42" y="138" class="card-list">Tool Manifest</text>
    <circle cx="32" cy="148" r="2.5" fill="#0969da" opacity="0.4"/><text x="42" y="152" class="card-list">Decision Logic</text>
    <circle cx="32" cy="162" r="2.5" fill="#0969da" opacity="0.4"/><text x="42" y="166" class="card-list">Failure Protocol</text>
    <circle cx="32" cy="176" r="2.5" fill="#0969da" opacity="0.4"/><text x="42" y="180" class="card-list">Success Criteria</text>
    <circle cx="32" cy="190" r="2.5" fill="#0969da" opacity="0.4"/><text x="42" y="194" class="card-list">Governance Mode</text>
    <circle cx="32" cy="204" r="2.5" fill="#0969da" opacity="0.4"/><text x="42" y="208" class="card-list">Audit Logging</text>

    <!-- Proven Patterns card -->
    <rect x="308" y="42" width="280" height="204" rx="6" fill="#ffffff" stroke="#e8ecf0" stroke-width="1"/>
    <text x="320" y="60" class="card-title" fill="#0969da">Proven Patterns</text>
    <text x="320" y="74" class="small-mono mono" fill="#0969da">11 THAT WORK</text>
    <circle cx="324" cy="92" r="2.5" fill="#0969da" opacity="0.4"/><text x="334" y="96" class="card-list">P-001: Role, Scope, Rules order</text>
    <circle cx="324" cy="106" r="2.5" fill="#0969da" opacity="0.4"/><text x="334" y="110" class="card-list">P-002: Negative examples</text>
    <circle cx="324" cy="120" r="2.5" fill="#0969da" opacity="0.4"/><text x="334" y="124" class="card-list">P-003: If/Then decision logic</text>
    <circle cx="324" cy="134" r="2.5" fill="#0969da" opacity="0.4"/><text x="334" y="138" class="card-list">P-004: One Agent, One Job</text>
    <circle cx="324" cy="148" r="2.5" fill="#0969da" opacity="0.4"/><text x="334" y="152" class="card-list">P-005: Uncertainty handling</text>
    <circle cx="324" cy="162" r="2.5" fill="#0969da" opacity="0.4"/><text x="334" y="166" class="card-list">P-006: Forced-answer final exit</text>
    <circle cx="324" cy="176" r="2.5" fill="#0969da" opacity="0.4"/><text x="334" y="180" class="card-list">S-001 to S-003: Structural</text>
    <circle cx="324" cy="190" r="2.5" fill="#0969da" opacity="0.4"/><text x="334" y="194" class="card-list">PR-001 to PR-002: Process</text>

    <!-- Anti-Patterns card -->
    <rect x="16" y="258" width="280" height="204" rx="6" fill="#ffffff" stroke="#e8ecf0" stroke-width="1"/>
    <text x="28" y="276" class="card-title" fill="#0969da">Anti-Patterns</text>
    <text x="28" y="290" class="small-mono mono" fill="#0969da">8 TRAPS TO AVOID</text>
    <circle cx="32" cy="308" r="2.5" fill="#0969da" opacity="0.4"/><text x="42" y="312" class="card-list">Motivational Poster</text>
    <circle cx="32" cy="322" r="2.5" fill="#0969da" opacity="0.4"/><text x="42" y="326" class="card-list">Kitchen Sink Scope</text>
    <circle cx="32" cy="336" r="2.5" fill="#0969da" opacity="0.4"/><text x="42" y="340" class="card-list">Invisible Tool</text>
    <circle cx="32" cy="350" r="2.5" fill="#0969da" opacity="0.4"/><text x="42" y="354" class="card-list">Echo Chamber</text>
    <circle cx="32" cy="364" r="2.5" fill="#0969da" opacity="0.4"/><text x="42" y="368" class="card-list">Redundant Restater</text>
    <circle cx="32" cy="378" r="2.5" fill="#0969da" opacity="0.4"/><text x="42" y="382" class="card-list">One-Time Task</text>
    <circle cx="32" cy="392" r="2.5" fill="#0969da" opacity="0.4"/><text x="42" y="396" class="card-list">Personality w/o Function</text>
    <circle cx="32" cy="406" r="2.5" fill="#0969da" opacity="0.4"/><text x="42" y="410" class="card-list">Unverifiable Success</text>

    <!-- Templates & Bloat Test card -->
    <rect x="308" y="258" width="280" height="204" rx="6" fill="#ffffff" stroke="#e8ecf0" stroke-width="1"/>
    <text x="320" y="276" class="card-title" fill="#0969da">Templates &amp; Methods</text>
    <circle cx="324" cy="296" r="2.5" fill="#0969da" opacity="0.4"/><text x="334" y="300" class="card-list" font-weight="600">Agent Template</text>
    <text x="334" y="314" class="card-list">Blank start with all 9 sections</text>
    <circle cx="324" cy="332" r="2.5" fill="#0969da" opacity="0.4"/><text x="334" y="336" class="card-list" font-weight="600">ISC Method</text>
    <text x="334" y="350" class="card-list">Ideal State Criteria for defining "done"</text>
    <circle cx="324" cy="368" r="2.5" fill="#0969da" opacity="0.4"/><text x="334" y="372" class="card-list" font-weight="600">Assessment Template</text>
    <text x="334" y="386" class="card-list">Rubric + negative testing</text>
    <!-- Bloat test callout -->
    <rect x="320" y="400" width="256" height="48" rx="6" fill="#fff8c5" stroke="#f5e0a0" stroke-width="1" stroke-dasharray="4 3"/>
    <text x="332" y="416" class="small-mono mono" fill="#bf8700" font-weight="600">THE BLOAT TEST</text>
    <text x="332" y="432" class="card-list" fill="#bf8700">"If removing this line doesn't change</text>
    <text x="332" y="444" class="card-list" fill="#bf8700">the agent's output, cut it."</text>
  </g>

  <!-- ==================== EXECUTE ZONE (right) ==================== -->
  <g id="execute" transform="translate(652, 454)">
    <rect x="0" y="0" width="604" height="480" rx="8" fill="#ffffff" stroke="#d0d7de" stroke-width="1"/>
    <rect x="0" y="0" width="604" height="30" rx="8" fill="#fbefff" stroke="#e2b6ff" stroke-width="1"/>
    <rect x="0" y="15" width="604" height="15" fill="#fbefff"/>
    <text x="16" y="20" class="zone-label mono" fill="#8250df">EXECUTE -- RIGOROUS WORK</text>

    <!-- /algorithm card -->
    <rect x="16" y="42" width="572" height="100" rx="6" fill="#ffffff" stroke="#e8ecf0" stroke-width="1"/>
    <text x="28" y="60" class="card-title" fill="#8250df">/algorithm -- 7-Phase Execution Cycle</text>

    <!-- Phase nodes -->
    <g transform="translate(28, 72)">
      <rect x="0" y="0" width="64" height="28" rx="5" fill="#fbefff" stroke="#e2b6ff" stroke-width="1"/>
      <text x="32" y="18" text-anchor="middle" class="small-mono mono" fill="#8250df">OBSERVE</text>
    </g>
    <text x="105" y="90" class="card-list" fill="#8b949e">&rarr;</text>
    <g transform="translate(114, 72)">
      <rect x="0" y="0" width="54" height="28" rx="5" fill="#fbefff" stroke="#e2b6ff" stroke-width="1"/>
      <text x="27" y="18" text-anchor="middle" class="small-mono mono" fill="#8250df">THINK</text>
    </g>
    <text x="181" y="90" class="card-list" fill="#8b949e">&rarr;</text>
    <g transform="translate(190, 72)">
      <rect x="0" y="0" width="50" height="28" rx="5" fill="#fbefff" stroke="#e2b6ff" stroke-width="1"/>
      <text x="25" y="18" text-anchor="middle" class="small-mono mono" fill="#8250df">PLAN</text>
    </g>
    <text x="253" y="90" class="card-list" fill="#8b949e">&rarr;</text>
    <g transform="translate(262, 72)">
      <rect x="0" y="0" width="52" height="28" rx="5" fill="#fbefff" stroke="#e2b6ff" stroke-width="1"/>
      <text x="26" y="18" text-anchor="middle" class="small-mono mono" fill="#8250df">BUILD</text>
    </g>
    <text x="327" y="90" class="card-list" fill="#8b949e">&rarr;</text>
    <g transform="translate(336, 72)">
      <rect x="0" y="0" width="66" height="28" rx="5" fill="#fbefff" stroke="#e2b6ff" stroke-width="1"/>
      <text x="33" y="18" text-anchor="middle" class="small-mono mono" fill="#8250df">EXECUTE</text>
    </g>
    <text x="415" y="90" class="card-list" fill="#8b949e">&rarr;</text>
    <g transform="translate(424, 72)">
      <rect x="0" y="0" width="58" height="28" rx="5" fill="#fbefff" stroke="#e2b6ff" stroke-width="1"/>
      <text x="29" y="18" text-anchor="middle" class="small-mono mono" fill="#8250df">VERIFY</text>
    </g>
    <text x="495" y="90" class="card-list" fill="#8b949e">&rarr;</text>
    <g transform="translate(504, 72)">
      <rect x="0" y="0" width="56" height="28" rx="5" fill="#fbefff" stroke="#e2b6ff" stroke-width="1"/>
      <text x="28" y="18" text-anchor="middle" class="small-mono mono" fill="#8250df">LEARN</text>
    </g>

    <text x="302" y="128" text-anchor="middle" class="card-list" fill="#8b949e">Understand deeply &rarr; Pressure-test &rarr; Sequence &rarr; Prepare &rarr; Do &rarr; Prove &rarr; Extract</text>

    <!-- /discover card -->
    <rect x="16" y="154" width="280" height="180" rx="6" fill="#ffffff" stroke="#e8ecf0" stroke-width="1"/>
    <text x="28" y="172" class="card-title" fill="#8250df">/discover -- Learning Pipeline</text>
    <text x="28" y="186" class="small-mono mono" fill="#8250df">EXTERNAL SOURCES &rarr; YOUR SYSTEM</text>
    <circle cx="32" cy="204" r="2.5" fill="#8250df" opacity="0.4"/><text x="42" y="208" class="card-list">Observe the source</text>
    <circle cx="32" cy="218" r="2.5" fill="#8250df" opacity="0.4"/><text x="42" y="222" class="card-list">Deep Extract everything</text>
    <circle cx="32" cy="232" r="2.5" fill="#8250df" opacity="0.4"/><text x="42" y="236" class="card-list">Gap Analysis vs current</text>
    <circle cx="32" cy="246" r="2.5" fill="#8250df" opacity="0.4"/><text x="42" y="250" class="card-list">Think: adoption cost?</text>
    <circle cx="32" cy="260" r="2.5" fill="#8250df" opacity="0.4"/><text x="42" y="264" class="card-list">Prioritize P0-P3</text>
    <circle cx="32" cy="274" r="2.5" fill="#8250df" opacity="0.4"/><text x="42" y="278" class="card-list">Integration Plan</text>
    <circle cx="32" cy="288" r="2.5" fill="#8250df" opacity="0.4"/><text x="42" y="292" class="card-list">Learn &amp; feed forward</text>

    <!-- Effort Tiers card -->
    <rect x="308" y="154" width="280" height="180" rx="6" fill="#ffffff" stroke="#e8ecf0" stroke-width="1"/>
    <text x="320" y="172" class="card-title" fill="#8250df">Effort Tiers</text>
    <text x="320" y="186" class="card-list">Match rigor to stakes</text>
    <text x="324" y="210" class="small-mono mono" fill="#8250df">STD</text><text x="370" y="210" class="card-list">&lt; 2 hours</text>
    <text x="324" y="228" class="small-mono mono" fill="#8250df">EXT</text><text x="370" y="228" class="card-list">&lt; 8 hours</text>
    <text x="324" y="246" class="small-mono mono" fill="#8250df">ADV</text><text x="370" y="246" class="card-list">&lt; 2 days</text>
    <text x="324" y="264" class="small-mono mono" fill="#8250df">DEEP</text><text x="370" y="264" class="card-list">&lt; 1 week</text>
    <text x="324" y="282" class="small-mono mono" fill="#8250df">COMP</text><text x="370" y="282" class="card-list">&lt; 2 weeks</text>
  </g>

  <!-- ==================== LIFECYCLE (full width) ==================== -->
  <g id="lifecycle" transform="translate(24, 950)">
    <rect x="0" y="0" width="1232" height="130" rx="8" fill="#ffffff" stroke="#d0d7de" stroke-width="1"/>
    <rect x="0" y="0" width="1232" height="30" rx="8" fill="#f6f8fa" stroke="#d0d7de" stroke-width="1"/>
    <rect x="0" y="15" width="1232" height="15" fill="#f6f8fa"/>
    <text x="16" y="20" class="zone-label mono" fill="#24292f">LIFECYCLE ENGINE -- CONNECTS EVERYTHING</text>

    <!-- Lifecycle nodes -->
    <g transform="translate(140, 48)">
      <rect x="0" y="0" width="110" height="36" rx="6" fill="#f6f8fa" stroke="#d0d7de" stroke-width="1"/>
      <text x="55" y="22" text-anchor="middle" class="tag mono" fill="#24292f">ARCHITECT</text>
    </g>
    <text x="286" y="70" font-size="14" fill="#8b949e">&rarr;</text>
    <g transform="translate(310, 48)">
      <rect x="0" y="0" width="90" height="36" rx="6" fill="#f6f8fa" stroke="#d0d7de" stroke-width="1"/>
      <text x="45" y="22" text-anchor="middle" class="tag mono" fill="#24292f">AUDIT</text>
    </g>
    <text x="436" y="70" font-size="14" fill="#8b949e">&rarr;</text>
    <g transform="translate(460, 48)">
      <rect x="0" y="0" width="100" height="36" rx="6" fill="#f6f8fa" stroke="#d0d7de" stroke-width="1"/>
      <text x="50" y="22" text-anchor="middle" class="tag mono" fill="#24292f">ITERATE</text>
    </g>
    <text x="596" y="70" font-size="14" fill="#8b949e">&rarr;</text>
    <g transform="translate(620, 48)">
      <rect x="0" y="0" width="100" height="36" rx="6" fill="#f6f8fa" stroke="#d0d7de" stroke-width="1"/>
      <text x="50" y="22" text-anchor="middle" class="tag mono" fill="#24292f">GOVERN</text>
    </g>
    <text x="756" y="70" font-size="14" fill="#8b949e">&rarr;</text>
    <g transform="translate(780, 48)">
      <rect x="0" y="0" width="110" height="36" rx="6" fill="#f6f8fa" stroke="#d0d7de" stroke-width="1"/>
      <text x="55" y="22" text-anchor="middle" class="tag mono" fill="#24292f">RESEARCH</text>
    </g>

    <!-- Substeps -->
    <text x="195" y="104" text-anchor="middle" class="card-list" fill="#8b949e">Discovery &rarr; Design</text>
    <text x="195" y="116" text-anchor="middle" class="card-list" fill="#8b949e">&rarr; Review &rarr; Ship v1</text>
    <text x="355" y="104" text-anchor="middle" class="card-list" fill="#8b949e">Standard &rarr; Bloat</text>
    <text x="355" y="116" text-anchor="middle" class="card-list" fill="#8b949e">&rarr; Gap &rarr; Diagnosis</text>
    <text x="510" y="104" text-anchor="middle" class="card-list" fill="#8b949e">Feedback &rarr; Root</text>
    <text x="510" y="116" text-anchor="middle" class="card-list" fill="#8b949e">&rarr; Patch &rarr; Version</text>
    <text x="670" y="104" text-anchor="middle" class="card-list" fill="#8b949e">Registry &rarr; Overlap</text>
    <text x="670" y="116" text-anchor="middle" class="card-list" fill="#8b949e">&rarr; Health &rarr; Report</text>
    <text x="835" y="104" text-anchor="middle" class="card-list" fill="#8b949e">Academic validation</text>
    <text x="835" y="116" text-anchor="middle" class="card-list" fill="#8b949e">of patterns monthly</text>
  </g>

  <!-- ==================== GOVERN ZONE (left) ==================== -->
  <g id="govern" transform="translate(24, 1096)">
    <rect x="0" y="0" width="604" height="500" rx="8" fill="#ffffff" stroke="#d0d7de" stroke-width="1"/>
    <rect x="0" y="0" width="604" height="30" rx="8" fill="#fff8c5" stroke="#f5e0a0" stroke-width="1"/>
    <rect x="0" y="15" width="604" height="15" fill="#fff8c5"/>
    <text x="16" y="20" class="zone-label mono" fill="#bf8700">GOVERN -- SAFETY &amp; TRUST</text>

    <!-- Governance Modes -->
    <rect x="16" y="42" width="572" height="100" rx="6" fill="#ffffff" stroke="#e8ecf0" stroke-width="1"/>
    <text x="28" y="60" class="card-title" fill="#bf8700">Governance Modes</text>
    <!-- Mode bar -->
    <rect x="28" y="70" width="186" height="60" rx="0" fill="rgba(191,135,0,0.04)" stroke="#f5e0a0" stroke-width="1"/>
    <text x="121" y="88" text-anchor="middle" class="tag mono" fill="#bf8700">OBSERVE</text>
    <text x="121" y="100" text-anchor="middle" class="small-mono mono" fill="#bf8700" opacity="0.6">0 -- 39</text>
    <text x="121" y="122" text-anchor="middle" class="card-list">Read-only</text>

    <rect x="214" y="70" width="186" height="60" rx="0" fill="rgba(191,135,0,0.08)" stroke="#f5e0a0" stroke-width="1"/>
    <text x="307" y="88" text-anchor="middle" class="tag mono" fill="#bf8700">SUGGEST</text>
    <text x="307" y="100" text-anchor="middle" class="small-mono mono" fill="#bf8700" opacity="0.6">40 -- 79</text>
    <text x="307" y="122" text-anchor="middle" class="card-list">Propose + approve</text>

    <rect x="400" y="70" width="186" height="60" rx="0" fill="rgba(191,135,0,0.14)" stroke="#f5e0a0" stroke-width="1"/>
    <text x="493" y="88" text-anchor="middle" class="tag mono" fill="#bf8700">AUTONOMOUS</text>
    <text x="493" y="100" text-anchor="middle" class="small-mono mono" fill="#bf8700" opacity="0.6">80 -- 100</text>
    <text x="493" y="122" text-anchor="middle" class="card-list">Act + log</text>

    <!-- Trust Scoring -->
    <rect x="16" y="154" width="280" height="186" rx="6" fill="#ffffff" stroke="#e8ecf0" stroke-width="1"/>
    <text x="28" y="172" class="card-title" fill="#bf8700">Trust Scoring</text>
    <text x="28" y="186" class="small-mono mono" fill="#bf8700">QUANTITATIVE TRACK RECORD (0-100)</text>
    <rect x="28" y="196" width="120" height="18" rx="4" fill="#dafbe1"/><text x="34" y="209" class="small-mono mono" fill="#1a7f37">task_success +3</text>
    <rect x="156" y="196" width="120" height="18" rx="4" fill="#dafbe1"/><text x="162" y="209" class="small-mono mono" fill="#1a7f37">no_revision +5</text>
    <rect x="28" y="218" width="120" height="18" rx="4" fill="#dafbe1"/><text x="34" y="231" class="small-mono mono" fill="#1a7f37">suggestion_ok +2</text>
    <rect x="156" y="218" width="120" height="18" rx="4" fill="#dafbe1"/><text x="162" y="231" class="small-mono mono" fill="#1a7f37">useful_output +2</text>
    <rect x="28" y="244" width="120" height="18" rx="4" fill="#ffebe9"/><text x="34" y="257" class="small-mono mono" fill="#cf222e">hallucination -20</text>
    <rect x="156" y="244" width="120" height="18" rx="4" fill="#ffebe9"/><text x="162" y="257" class="small-mono mono" fill="#cf222e">boundary_viol -15</text>
    <rect x="28" y="266" width="120" height="18" rx="4" fill="#ffebe9"/><text x="34" y="279" class="small-mono mono" fill="#cf222e">bad_judgment -5</text>
    <rect x="156" y="266" width="120" height="18" rx="4" fill="#ffebe9"/><text x="162" y="279" class="small-mono mono" fill="#cf222e">rejected -2</text>
    <text x="28" y="308" class="small-mono mono" fill="#8b949e">Decay: -1 per 7 days idle</text>
    <text x="28" y="322" class="small-mono mono" fill="#8b949e">Streak: 3x = +2, 5x = +5</text>

    <!-- Blast Radius -->
    <rect x="308" y="154" width="280" height="186" rx="6" fill="#ffffff" stroke="#e8ecf0" stroke-width="1"/>
    <text x="320" y="172" class="card-title" fill="#bf8700">Blast Radius Limits</text>
    <text x="320" y="186" class="small-mono mono" fill="#bf8700">HARD CAPS PER MODE</text>
    <!-- Table header -->
    <text x="412" y="208" class="table-head mono" fill="#bf8700" text-anchor="middle">OBS</text>
    <text x="476" y="208" class="table-head mono" fill="#bf8700" text-anchor="middle">SUG</text>
    <text x="540" y="208" class="table-head mono" fill="#bf8700" text-anchor="middle">AUTO</text>
    <line x1="320" y1="214" x2="576" y2="214" stroke="#f5e0a0" stroke-width="1"/>
    <!-- Rows -->
    <text x="324" y="230" class="small-mono mono" fill="#8b949e">Files/action</text>
    <text x="412" y="230" class="table-cell" text-anchor="middle">0</text>
    <text x="476" y="230" class="table-cell" text-anchor="middle">3</text>
    <text x="540" y="230" class="table-cell" text-anchor="middle">5</text>
    <text x="324" y="248" class="small-mono mono" fill="#8b949e">Lines/file</text>
    <text x="412" y="248" class="table-cell" text-anchor="middle">0</text>
    <text x="476" y="248" class="table-cell" text-anchor="middle">50</text>
    <text x="540" y="248" class="table-cell" text-anchor="middle">100</text>
    <text x="324" y="266" class="small-mono mono" fill="#8b949e">Ext. writes</text>
    <text x="412" y="266" class="table-cell" text-anchor="middle">0</text>
    <text x="476" y="266" class="table-cell" text-anchor="middle">0</text>
    <text x="540" y="266" class="table-cell" text-anchor="middle">5/hr</text>
    <text x="324" y="284" class="small-mono mono" fill="#8b949e">Tasks</text>
    <text x="412" y="284" class="table-cell" text-anchor="middle">0</text>
    <text x="476" y="284" class="table-cell" text-anchor="middle">0</text>
    <text x="540" y="284" class="table-cell" text-anchor="middle">10</text>

    <!-- Audit + Prohibited -->
    <rect x="16" y="352" width="280" height="58" rx="6" fill="#ffffff" stroke="#e8ecf0" stroke-width="1"/>
    <text x="28" y="370" class="card-title" fill="#bf8700">Audit Trail</text>
    <text x="28" y="386" class="card-list">Every state modification logged. JSONL format.</text>
    <text x="28" y="400" class="small-mono mono" fill="#8b949e">{timestamp, agent, mode, action, confidence}</text>

    <rect x="308" y="352" width="280" height="58" rx="6" fill="#ffffff" stroke="#e8ecf0" stroke-width="1"/>
    <text x="320" y="370" class="card-title" fill="#bf8700">Prohibited (Always)</text>
    <text x="320" y="386" class="card-list">No deleting | No messages | No financial</text>
    <text x="320" y="400" class="card-list">No credentials | No force ops | No self-modify</text>
  </g>

  <!-- ==================== IMPROVE ZONE (right) ==================== -->
  <g id="improve" transform="translate(652, 1096)">
    <rect x="0" y="0" width="604" height="500" rx="8" fill="#ffffff" stroke="#d0d7de" stroke-width="1"/>
    <rect x="0" y="0" width="604" height="30" rx="8" fill="#dafbe1" stroke="#a7f0ba" stroke-width="1"/>
    <rect x="0" y="15" width="604" height="15" fill="#dafbe1"/>
    <text x="16" y="20" class="zone-label mono" fill="#1a7f37">IMPROVE -- SELF-EVOLUTION</text>

    <!-- autoimprove -->
    <rect x="16" y="42" width="280" height="224" rx="6" fill="#ffffff" stroke="#e8ecf0" stroke-width="1"/>
    <text x="28" y="60" class="card-title" fill="#1a7f37">autoimprove -- The Lab</text>
    <text x="28" y="74" class="small-mono mono" fill="#1a7f37">SCHEDULED OPTIMIZATION</text>
    <!-- Flow tags -->
    <rect x="28" y="84" width="56" height="18" rx="4" fill="#dafbe1" stroke="#a7f0ba" stroke-width="1"/><text x="56" y="97" text-anchor="middle" class="small-mono mono" fill="#1a7f37">test</text>
    <text x="92" y="97" class="card-list" fill="#8b949e">&rarr;</text>
    <rect x="100" y="84" width="56" height="18" rx="4" fill="#dafbe1" stroke="#a7f0ba" stroke-width="1"/><text x="128" y="97" text-anchor="middle" class="small-mono mono" fill="#1a7f37">score</text>
    <text x="164" y="97" class="card-list" fill="#8b949e">&rarr;</text>
    <rect x="172" y="84" width="62" height="18" rx="4" fill="#dafbe1" stroke="#a7f0ba" stroke-width="1"/><text x="203" y="97" text-anchor="middle" class="small-mono mono" fill="#1a7f37">propose</text>
    <text x="242" y="97" class="card-list" fill="#8b949e">&rarr;</text>
    <rect x="250" y="84" width="36" height="18" rx="4" fill="#dafbe1" stroke="#a7f0ba" stroke-width="1"/><text x="268" y="97" text-anchor="middle" class="small-mono mono" fill="#1a7f37">ok?</text>

    <text x="28" y="122" class="card-list" font-weight="600" fill="#656d76">Git Ratchet: commit on improve, reset on regress.</text>
    <text x="28" y="142" class="card-list" font-weight="600" fill="#656d76">Three-File Contract:</text>
    <circle cx="32" cy="158" r="2.5" fill="#1a7f37" opacity="0.4"/><text x="42" y="162" class="card-list">Immutable evaluator</text>
    <circle cx="32" cy="174" r="2.5" fill="#1a7f37" opacity="0.4"/><text x="42" y="178" class="card-list">Editable agent file</text>
    <circle cx="32" cy="190" r="2.5" fill="#1a7f37" opacity="0.4"/><text x="42" y="194" class="card-list">Human directive</text>

    <!-- OpenSpace -->
    <rect x="308" y="42" width="280" height="224" rx="6" fill="#ffffff" stroke="#e8ecf0" stroke-width="1"/>
    <text x="320" y="60" class="card-title" fill="#1a7f37">OpenSpace -- Immune System</text>
    <text x="320" y="74" class="small-mono mono" fill="#1a7f37">CONTINUOUS EVOLUTION</text>
    <!-- FIX -->
    <rect x="320" y="84" width="256" height="40" rx="5" fill="#dafbe1" stroke="#a7f0ba" stroke-width="1"/>
    <text x="332" y="100" class="small-mono mono" fill="#1a7f37" font-weight="600">FIX</text>
    <text x="332" y="116" class="card-list">Repair broken agent. Triggered by failures.</text>
    <!-- DERIVED -->
    <rect x="320" y="130" width="256" height="40" rx="5" fill="#dafbe1" stroke="#a7f0ba" stroke-width="1"/>
    <text x="332" y="146" class="small-mono mono" fill="#1a7f37" font-weight="600">DERIVED</text>
    <text x="332" y="162" class="card-list">Specialize from success. New variant.</text>
    <!-- CAPTURED -->
    <rect x="320" y="176" width="256" height="40" rx="5" fill="#dafbe1" stroke="#a7f0ba" stroke-width="1"/>
    <text x="332" y="192" class="small-mono mono" fill="#1a7f37" font-weight="600">CAPTURED</text>
    <text x="332" y="208" class="card-list">Extract novel pattern as new agent.</text>

    <!-- Scoring Dimensions -->
    <rect x="16" y="278" width="280" height="130" rx="6" fill="#ffffff" stroke="#e8ecf0" stroke-width="1"/>
    <text x="28" y="296" class="card-title" fill="#1a7f37">6 Scoring Dimensions</text>
    <text x="28" y="310" class="card-list">Weighted by agent type</text>
    <!-- Dim grid -->
    <rect x="28" y="320" width="82" height="26" rx="4" fill="#dafbe1" stroke="#a7f0ba" stroke-width="1"/>
    <text x="69" y="337" text-anchor="middle" class="dim-label mono" fill="#1a7f37">Complete 0.25</text>
    <rect x="116" y="320" width="82" height="26" rx="4" fill="#dafbe1" stroke="#a7f0ba" stroke-width="1"/>
    <text x="157" y="337" text-anchor="middle" class="dim-label mono" fill="#1a7f37">Accuracy 0.30</text>
    <rect x="204" y="320" width="82" height="26" rx="4" fill="#dafbe1" stroke="#a7f0ba" stroke-width="1"/>
    <text x="245" y="337" text-anchor="middle" class="dim-label mono" fill="#1a7f37">Structure 0.05</text>
    <rect x="28" y="350" width="82" height="26" rx="4" fill="#dafbe1" stroke="#a7f0ba" stroke-width="1"/>
    <text x="69" y="367" text-anchor="middle" class="dim-label mono" fill="#1a7f37">Confid. 0.10</text>
    <rect x="116" y="350" width="82" height="26" rx="4" fill="#dafbe1" stroke="#a7f0ba" stroke-width="1"/>
    <text x="157" y="367" text-anchor="middle" class="dim-label mono" fill="#1a7f37">Action. 0.15</text>
    <rect x="204" y="350" width="82" height="26" rx="4" fill="#dafbe1" stroke="#a7f0ba" stroke-width="1"/>
    <text x="245" y="367" text-anchor="middle" class="dim-label mono" fill="#1a7f37">Specific 0.15</text>

    <!-- When to use what + Cost -->
    <rect x="308" y="278" width="280" height="130" rx="6" fill="#ffffff" stroke="#e8ecf0" stroke-width="1"/>
    <text x="320" y="296" class="card-title" fill="#1a7f37">When to Use What</text>
    <text x="324" y="318" class="small-mono mono" fill="#1a7f37">&lt; 50</text><text x="380" y="318" class="card-list">OpenSpace fix (structural)</text>
    <text x="324" y="336" class="small-mono mono" fill="#1a7f37">50-75</text><text x="380" y="336" class="card-list">OpenSpace + autoimprove</text>
    <text x="324" y="354" class="small-mono mono" fill="#1a7f37">75-85</text><text x="380" y="354" class="card-list">autoimprove only (polish)</text>
    <text x="324" y="372" class="small-mono mono" fill="#1a7f37">&gt; 85</text><text x="380" y="372" class="card-list">Leave alone</text>
    <!-- Cost callout -->
    <rect x="320" y="382" width="256" height="20" rx="5" fill="#dafbe1" stroke="#a7f0ba" stroke-width="1" stroke-dasharray="4 3"/>
    <text x="332" y="396" class="small-mono mono" fill="#1a7f37">~$0.19/iter &middot; ~$5/run &middot; ~$100-200/mo</text>
  </g>

</svg>
